<svg version="1.1" id="svg12" xmlns="http://www.w3.org/2000/svg" x="0" y="0" viewBox="0 0 2000 526.3" style="enable-background:new 0 0 2000 526.3" xml:space="preserve"><style>.st0{fill:#00a868}</style><path id="path2" class="st0" d="M1128.4 512.7h89.2c.9.1 1.7-.1 2.6-.3.8-.3 1.6-.7 2.2-1.3.6-.6 1.2-1.3 1.5-2.1.4-.8.6-1.6.6-2.5V262.2c0-69.3 34.3-105.8 93.6-105.8s93 36.5 93 105.8v244.3c0 .9.2 1.7.6 2.5.4.8.9 1.5 1.5 2.1.6.6 1.4 1 2.2 1.3.8.3 1.7.4 2.6.3h89.2c.9.1 1.7-.1 2.6-.3.8-.3 1.6-.7 2.2-1.3.6-.6 1.2-1.3 1.5-2.1.4-.8.6-1.6.6-2.5V262.9c0-104.5-58.7-196.1-196-196.1s-196.6 91.5-196.6 196.1v243.7c0 .9.2 1.7.6 2.5s.9 1.5 1.5 2.1c.6.6 1.4 1 2.2 1.3.9.2 1.7.3 2.6.2z"/><path id="path4" class="st0" d="M514.3 518.3c32.5 0 53.7-3.7 63-7.4 1.4-.6 2.6-1.5 3.5-2.7.9-1.2 1.4-2.6 1.5-4.1v-73c0-4.3-1.9-6.8-7.5-6.8-4.4 0-16.9 2.5-26.8 2.5-38.7 0-55.5-14.2-55.5-47.6v-206h82.4c1.8 0 3.6-.7 4.8-2 1.3-1.3 2-3 2-4.8V86.6c0-1.8-.7-3.5-2-4.8-1.3-1.3-3-2-4.8-2h-85.5V10.5c0-7.4-3.1-10.5-8.7-10.5h-84.3c-6.9 0-10 3.1-10 10.5v379.1c-.1 92.2 51.7 128.7 127.9 128.7z"/><path id="path6" class="st0" d="M156.1 523.2c100.5 0 172.3-61.2 172.3-141 0-89.7-59.9-115.6-141.7-133l-40.6-8.7c-30.6-6.8-47.4-21-47.4-45.2 0-30.9 31.2-47.6 74.3-47.6 60.5 0 101.7 27.2 108 27.2 1.7-.1 3.4-.7 4.8-1.7s2.6-2.3 3.3-3.9l16.2-60c3.1-8 2.5-9.9-3.1-13-36.2-18.6-74.9-29.1-129.8-29.1C70.5 67.4 0 125.5 0 202.9c0 73 56.8 113.2 138 130.5l41.2 8.7c33.1 6.8 51.7 19.8 51.7 47.6 0 28.4-22.5 53.2-75.5 53.2-74.9 0-126.1-29.7-134.2-29.7-5 0-6.9 2.5-8.7 10.5L1.9 473.8c-3.1 10.5 0 17.3 6.9 20.4 25.5 14.2 95.4 29 147.3 29z"/><path id="path8" class="st0" d="M836.9 437.3c-65.5 0-125.4-48.9-125.4-141s59.9-139.8 125.4-139.8c66.1 0 124.8 47.6 124.8 139.8.1 92.7-58.6 141-124.8 141zm0 89c131.1 0 226.5-97.1 226.5-230.1S967.9 66.7 836.9 66.7c-130.5 0-226.6 96.5-226.6 229.5s96.2 230.1 226.6 230.1z"/><path id="path10" class="st0" d="M2000 291.3c0-136.7-79.3-224.5-205.4-224.5-118.6 0-220.9 90.3-220.9 227.6 0 146.6 104.8 231.9 217.2 231.9 94.3 0 148.6-36.8 182.2-81.6 6.5-8.7 7.8-12.4 7.8-14.9 0-2.4-1.6-4.3-7.2-9.3l-39.3-34c-9.4-8-12.5-10.5-15.7-10.5-3.1 0-5 1.9-7.5 5-26.8 35.9-64.3 56.3-114.8 56.3-63.8 0-106.3-42.9-117-112.6h288c20 0 32.6-6.3 32.6-33.4zm-209.1-138.5c68.1 0 104.2 45.5 106.1 95.9h-216.2c11.9-54.1 48.9-95.9 110.1-95.9z"/></svg>